<svg width="54" height="115" viewBox="0 0 54 115" fill="none" xmlns="http://www.w3.org/2000/svg">
<path d="M0.65 25.62C6.99667 23.0133 13.7967 18.48 21.05 12.02C24.5633 8.84666 27.85 6.12666 30.91 3.86C33.97 1.59333 37.71 0.45999 42.13 0.45999C46.6633 0.45999 50.5167 1.25333 53.69 2.84C50.97 24.3733 49.61 44.5467 49.61 63.36C49.61 82.1733 50.63 98.38 52.67 111.98C49.4967 113.34 45.8133 114.02 41.62 114.02C37.4267 114.02 34.0267 112.66 31.42 109.94C28.8133 107.22 27.51 103.593 27.51 99.06C27.51 94.4133 28.4167 84.7233 30.23 69.99C32.0433 55.2567 33.0067 39.2767 33.12 22.05C31.8733 23.1833 29.7767 25.45 26.83 28.85C20.2567 36.4433 15.1 40.24 11.36 40.24C7.73333 40.24 5.01333 38.88 3.2 36.16C1.5 33.44 0.65 29.9267 0.65 25.62Z" fill="white"/>
</svg>
